 <svg  version="1.0" xmlns="http://www.w3.org/2000/svg"  width="300.000000pt" height="287.000000pt" viewBox="0 0 300.000000 287.000000"  preserveAspectRatio="xMidYMid meet">  <g transform="translate(0.000000,287.000000) scale(0.100000,-0.100000)" fill="#ffffff" stroke="none"> <path d="M1347 2333 l-99 -100 -226 -7 -227 -6 -40 -28 c-22 -15 -50 -43 -62 -61 l-23 -34 0 -458 0 -457 33 -43 c17 -23 50 -52 72 -63 39 -21 49 -21 765 -21 713 0 726 0 760 20 19 12 48 40 65 64 l30 43 3 459 c2 252 0 459 -4 459 -4 0 -33 -25 -65 -55 -32 -30 -62 -55 -68 -55 -8 0 -11 68 -11 215 l0 215 -187 0 c-104 0 -285 3 -403 6 l-215 6 -98 -99z m693 -407 l0 -285 -91 -93 c-81 -83 -92 -91 -99 -73 -5 11 -9 98 -9 193 -1 94 -4 172 -7 172 -3 0 -152 -144 -331 -320 l-325 -320 -174 0 c-96 0 -174 4 -174 9 0 9 379 378 674 656 l148 140 -64 6 c-34 4 -107 7 -161 8 l-98 1 88 95 88 95 268 0 267 0 0 -284z m-282 -518 c22 -22 12 -40 -70 -125 -88 -89 -120 -103 -126 -53 -2 21 14 42 81 108 47 45 89 82 94 82 5 0 14 -5 21 -12z"/> <path d="M450 778 l-130 -123 0 -55 c0 -65 22 -107 73 -139 l35 -21 1033 2 c964 3 1036 4 1060 20 39 27 69 89 69 141 0 43 -4 50 -52 94 -29 26 -89 83 -134 126 l-80 77 -872 0 -872 0 -130 -122z m1820 -23 l44 -45 -859 0 -859 0 44 45 44 45 771 0 771 0 44 -45z m-544 -150 c7 -19 14 -39 14 -45 0 -7 -99 -10 -295 -10 -162 0 -295 2 -295 5 0 3 9 24 20 45 l20 40 261 0 260 0 15 -35z"/> </g> </svg> 