<svg width="8675" height="3470" viewBox="0 0 8675 3470" fill="none" xmlns="http://www.w3.org/2000/svg">
<path d="M5347.27 1464.52C5342.74 1476.29 5324.62 1621.21 5323.72 1651.1C5323.72 1663.78 5299.26 1659.25 5287.49 1644.76C5269.37 1623.02 5148.01 1625.74 5115.4 1649.29C5065.58 1684.61 5047.47 1727.18 5048.38 1808.7C5048.38 1873.91 5051.09 1884.78 5073.74 1914.67C5109.06 1960.86 5177.89 1982.6 5236.77 1966.29C5259.41 1959.95 5282.96 1949.08 5288.39 1942.74C5304.7 1922.82 5321 1927.35 5327.34 1953.61C5332.77 1972.63 5337.3 1976.26 5362.66 1973.54L5391.65 1970.82L5398.89 1723.56C5403.42 1587.7 5404.33 1470.86 5401.61 1463.61C5395.27 1445.5 5354.51 1446.41 5347.27 1464.52ZM5287.49 1711.78C5318.28 1725.37 5319.19 1728.99 5321.91 1779.71C5324.62 1839.49 5311.04 1862.13 5253.07 1890.21C5226.8 1902.89 5215.94 1902.89 5186.05 1894.74C5098.19 1868.47 5090.04 1740.77 5173.37 1702.73C5212.31 1685.52 5234.05 1687.33 5287.49 1711.78Z" fill="white"/>
<path d="M6356.67 1384.27C6323.16 1420.5 6350.33 1476.66 6401.05 1476.66C6425.51 1476.66 6449.96 1449.49 6449.96 1420.5C6449.96 1374.31 6387.47 1349.86 6356.67 1384.27Z" fill="#FF5005"/>
<path d="M2584.77 1259.56L2584.74 1259.56L2584.71 1259.57L2498.13 1266.1L2502.8 1323.71L2507.53 1382.09H2612.99C2653.85 1382.09 2684.09 1383.89 2705.92 1388.4C2727.6 1392.88 2742.95 1400.42 2751.34 1413.62L2751.36 1413.65L2751.38 1413.68C2752.78 1415.91 2753.62 1418.7 2754.21 1421.01C2754.87 1423.58 2755.49 1426.72 2756.07 1430.29C2757.23 1437.44 2758.35 1446.9 2759.42 1458.32C2761.56 1481.17 2763.55 1512.36 2765.26 1549.56C2768.66 1624 2770.93 1722.87 2770.93 1828.05C2770.93 1835.09 2770.93 1842.01 2770.92 1848.8C2770.92 1942.64 2770.91 2013.55 2772.28 2067.03C2773.76 2124.64 2776.82 2161.07 2782.84 2183.86C2785.83 2195.17 2789.36 2202.36 2793.19 2207C2796.83 2211.41 2801.08 2213.93 2806.59 2215.3C2812.4 2216.74 2819.75 2216.92 2829.41 2216.13C2837.37 2215.48 2846.29 2214.23 2856.64 2212.78C2858.84 2212.47 2861.1 2212.16 2863.44 2211.83L2915.23 2203.99L2918.79 1800.8L2918.79 1800.77L2918.79 1800.75L2924.22 1391.36L2924.34 1382.56L2933.13 1382.11L3038.12 1376.68C3038.13 1376.67 3038.15 1376.67 3038.16 1376.67C3083.87 1373.93 3108.91 1371.22 3124.88 1364.87C3132.46 1361.86 3137.77 1358.08 3142.2 1353.08C3146.78 1347.91 3150.74 1341.09 3155.12 1331.45L3155.19 1331.29L3155.27 1331.13C3163.29 1315.09 3166.5 1304.51 3166.5 1296.61C3166.5 1289.53 3163.9 1283.66 3157.07 1276.8C3157.11 1276.84 3157.13 1276.87 3157.12 1276.87C3157.1 1276.9 3156.03 1276.18 3152.67 1275.11C3149.17 1273.99 3144.31 1272.83 3138.08 1271.67C3125.65 1269.34 3108.62 1267.15 3087.99 1265.15C3046.76 1261.16 2991.84 1258 2931.94 1255.96C2812.07 1251.89 2673.01 1252.36 2584.77 1259.56Z" fill="url(#paint0_linear_811_328)" stroke="white" stroke-width="18.7932"/>
<path d="M4306.59 1575.02C4297.53 1584.08 4291.19 1595.85 4291.19 1600.38C4291.19 1604.91 4321.98 1639.33 4360.02 1677.37C4411.65 1728.99 4427.95 1750.73 4423.42 1763.41C4420.71 1773.37 4389.91 1811.41 4354.59 1848.55C4320.17 1885.68 4292.09 1922.82 4291.19 1930.97C4291.19 1946.37 4318.36 1975.35 4333.76 1975.35C4343.72 1975.35 4405.31 1906.51 4444.26 1852.17C4456.94 1834.06 4470.52 1825 4478.67 1827.72C4491.35 1832.25 4552.04 1918.29 4564.72 1949.99C4571.96 1967.2 4581.93 1969.01 4615.44 1960.86C4627.21 1957.24 4635.36 1948.18 4635.36 1938.22C4635.36 1921.01 4561.1 1799.64 4543.89 1788.77C4525.77 1777.9 4537.55 1737.14 4574.68 1688.23C4596.42 1659.25 4621.78 1624.83 4629.93 1611.25C4645.33 1586.79 4645.33 1586.79 4618.16 1573.21C4603.66 1565.06 4587.36 1558.72 4582.83 1558.72C4578.3 1558.72 4556.57 1586.79 4535.73 1621.21C4515.81 1655.63 4492.26 1686.42 4485.01 1689.14C4476.86 1692.76 4448.79 1670.12 4407.12 1626.65C4371.8 1589.51 4338.29 1558.72 4331.95 1558.72C4326.51 1558.72 4314.74 1565.96 4306.59 1575.02Z" fill="white"/>
<path d="M7317.22 1582.27C7299.11 1605.81 7298.2 1605.81 7242.05 1594.95C7145.13 1575.93 7060.9 1612.15 7030.11 1684.61C7013.8 1723.56 7013.8 1746.2 7031.01 1794.21C7041.88 1825.91 7042.79 1838.59 7033.73 1863.04C7025.58 1885.68 7026.48 1898.36 7034.63 1920.1C7045.5 1945.46 7044.6 1949.99 7018.33 1981.69C6973.95 2035.13 6983.91 2094.91 7043.69 2131.14C7070.86 2148.34 7088.07 2151.06 7179.55 2151.06C7276.46 2151.06 7287.33 2149.25 7318.13 2129.32C7388.77 2082.23 7395.11 1988.94 7330.81 1948.18C7305.45 1933.69 7285.52 1930.06 7213.06 1930.06C7118.87 1930.06 7089.88 1921.91 7089.88 1893.84C7089.88 1878.44 7097.13 1877.53 7178.64 1878.44C7280.99 1880.25 7316.31 1865.76 7344.39 1810.51C7363.41 1773.37 7367.04 1709.97 7352.54 1671.03C7344.39 1650.19 7346.2 1642.95 7362.51 1625.74C7380.62 1606.72 7381.53 1601.29 7370.66 1581.36C7355.26 1552.38 7340.77 1552.38 7317.22 1582.27ZM7266.5 1677.37C7293.67 1703.63 7290.95 1767.03 7262.88 1797.83C7216.68 1846.74 7118.87 1819.57 7102.56 1753.45C7093.51 1716.31 7118.87 1670.12 7155.1 1659.25C7194.95 1647.48 7243.86 1655.63 7266.5 1677.37ZM7277.37 2006.15C7299.11 2025.17 7300.92 2030.6 7293.67 2053.24C7280.09 2091.28 7249.29 2103.06 7172.3 2100.34C7115.24 2097.62 7103.47 2094 7088.98 2075.89C7067.24 2048.71 7067.24 2037.85 7090.79 2007.96C7108 1986.22 7114.34 1984.41 7180.46 1984.41C7242.95 1984.41 7254.73 1987.13 7277.37 2006.15Z" fill="white"/>
<path d="M6009.35 1575.02C5995.77 1578.64 5972.22 1593.13 5957.73 1606.72C5903.38 1658.35 5928.74 1738.96 6010.26 1777C6121.66 1827.72 6138.87 1841.3 6138.87 1875.72C6138.87 1935.5 6057.36 1949.99 5983.99 1901.99C5936.89 1872.1 5927.84 1873 5908.82 1911.04C5893.42 1940.03 5897.95 1949.08 5935.08 1969.01C6030.18 2019.73 6139.78 2012.48 6193.21 1950.9C6214.95 1926.44 6220.39 1911.95 6220.39 1876.63C6220.39 1839.49 6215.86 1829.53 6188.69 1801.45C6170.57 1784.24 6138.87 1762.5 6118.04 1753.45C6041.96 1721.75 6018.41 1708.16 6009.35 1688.23C5993.95 1653.82 6022.94 1631.17 6080 1631.17C6105.36 1631.17 6130.72 1635.7 6136.15 1641.14C6141.59 1646.57 6155.17 1649.29 6166.95 1647.48C6196.84 1643.85 6202.27 1600.38 6175.1 1585.89C6151.55 1573.21 6043.77 1565.96 6009.35 1575.02Z" fill="white"/>
<path d="M3675.29 1591.32C3652.65 1599.47 3628.2 1611.25 3620.04 1618.49C3600.12 1635.7 3586.53 1634.8 3580.19 1613.96C3572.95 1590.42 3555.74 1584.98 3529.47 1598.57C3505.92 1610.34 3505.02 1613.96 3520.41 1708.16C3525.85 1742.58 3533.09 1815.94 3536.72 1871.19L3543.96 1970.82L3573.85 1973.54C3615.52 1978.07 3632.72 1960.86 3626.38 1924.63C3616.42 1873 3604.65 1727.18 3609.18 1714.5C3617.33 1694.57 3681.63 1667.4 3719.67 1667.4C3747.75 1667.4 3758.62 1662.87 3765.87 1648.38C3778.55 1625.74 3770.4 1585.89 3753.19 1585.89C3745.94 1585.89 3735.07 1584.08 3727.83 1581.36C3721.49 1579.55 3697.94 1584.08 3675.29 1591.32Z" fill="white"/>
<path d="M3125.52 1600.38C3104.69 1607.63 3076.61 1624.83 3063.02 1637.51L3037.66 1661.06L3058.49 1677.37C3085.67 1700.01 3099.25 1699.1 3132.76 1674.65C3189.82 1632.08 3313 1662.87 3313 1718.12C3313 1738.05 3310.29 1738.05 3224.24 1738.05C3130.05 1737.14 3109.21 1743.48 3066.65 1783.34C3044.91 1803.26 3041.29 1813.23 3041.29 1857.61C3041.29 1921.91 3063.02 1949.08 3130.05 1970.82C3188.01 1989.84 3244.17 1984.41 3296.7 1955.42L3332.93 1934.59L3367.35 1955.42C3409.01 1978.97 3428.94 1980.78 3456.11 1960.86C3470.6 1950.9 3476.03 1939.12 3474.22 1922.82C3471.51 1901.08 3467.88 1898.36 3435.28 1898.36H3399.05L3394.52 1803.26C3389.08 1687.33 3366.44 1637.51 3308.47 1608.53C3262.28 1585.89 3175.33 1582.27 3125.52 1600.38ZM3311.19 1798.73C3328.4 1805.07 3324.78 1870.29 3306.66 1886.59C3297.61 1894.74 3270.43 1905.61 3245.07 1911.95C3207.94 1920.1 3193.45 1920.1 3163.56 1909.23C3130.05 1897.46 3127.33 1893.83 3124.61 1860.32C3122.8 1830.43 3125.52 1821.38 3143.63 1809.6C3155.41 1802.36 3177.14 1794.21 3191.64 1791.49C3217.9 1787.86 3288.55 1792.39 3311.19 1798.73Z" fill="#DB2525"/>
<path d="M3918.03 1599.47C3838.33 1628.46 3813.87 1671.03 3866.4 1689.14C3885.42 1695.48 3895.39 1692.76 3918.93 1675.55C3976.9 1632.08 4100.99 1661.06 4100.99 1718.12C4100.99 1738.05 4098.27 1738.05 4010.41 1738.05C3915.31 1738.05 3899.01 1743.48 3850.1 1787.86C3832.89 1803.26 3829.27 1815.94 3829.27 1857.61C3829.27 1921.91 3850.1 1949.08 3918.03 1970.82C3976 1989.84 4032.15 1984.41 4084.68 1955.42L4120.91 1934.59L4155.33 1955.42C4196.99 1978.97 4216.92 1980.78 4244.09 1960.86C4258.58 1950.9 4264.02 1939.12 4262.21 1922.82C4259.49 1901.08 4255.87 1898.36 4223.26 1898.36H4187.03L4181.6 1803.26C4176.16 1706.35 4162.58 1657.44 4130.87 1629.36C4084.68 1588.61 3986.86 1574.11 3918.03 1599.47ZM4101.89 1802.36C4105.51 1805.07 4110.04 1818.66 4113.67 1831.34C4127.25 1890.21 4029.43 1937.31 3951.54 1909.23C3918.03 1897.46 3915.31 1893.83 3912.59 1860.32C3910.78 1830.43 3913.5 1821.38 3931.62 1809.6C3943.39 1802.36 3966.94 1794.21 3984.15 1792.39C4020.38 1787.86 4093.74 1794.21 4101.89 1802.36Z" fill="white"/>
<path d="M5591.81 1604C5516.64 1642.04 5486.75 1692.76 5486.75 1781.52C5486.75 1880.25 5528.41 1939.12 5613.55 1961.76C5686.91 1980.78 5792.88 1954.52 5820.96 1910.14C5829.11 1897.46 5828.21 1889.3 5816.43 1871.19C5798.32 1843.11 5785.64 1843.11 5743.97 1871.19C5690.54 1907.42 5621.7 1900.17 5584.57 1853.98C5570.98 1838.58 5561.92 1796.92 5570.98 1793.3C5571.89 1792.39 5629.85 1789.67 5699.59 1786.05L5826.4 1780.62L5829.11 1755.26C5833.64 1719.93 5807.37 1646.57 5782.92 1624.83C5734.92 1582.26 5653.4 1573.21 5591.81 1604ZM5732.2 1668.31C5782.01 1721.75 5765.71 1736.24 5652.5 1738.95C5570.07 1740.77 5568.26 1739.86 5568.26 1719.93C5569.17 1677.36 5616.27 1641.14 5670.61 1640.23C5698.69 1640.23 5711.37 1646.57 5732.2 1668.31Z" fill="white"/>
<path d="M6714.01 1601.29C6694.08 1608.53 6670.53 1621.21 6661.47 1629.36C6645.17 1643.86 6643.36 1642.95 6626.15 1619.4C6607.13 1593.13 6564.56 1585.89 6549.16 1605.82C6543.73 1612.16 6537.39 1697.29 6534.67 1795.11L6529.24 1973.54L6549.16 1978.97C6601.7 1992.56 6608.04 1979.88 6618.91 1834.06C6628.87 1709.07 6627.96 1710.88 6693.17 1676.46C6797.33 1620.31 6846.24 1689.14 6826.32 1863.04C6813.64 1968.11 6816.35 1977.16 6860.73 1973.54L6895.15 1970.82L6902.4 1911.95C6906.02 1879.34 6907.83 1811.41 6906.02 1760.69C6900.59 1649.29 6884.28 1613.06 6829.03 1596.76C6784.65 1583.17 6760.2 1584.08 6714.01 1601.29Z" fill="white"/>
<path d="M6341.75 1640.23C6323.64 1647.48 6320.92 1657.44 6314.58 1764.31C6310.96 1827.72 6307.34 1900.17 6307.34 1925.53C6306.43 1970.82 6306.43 1970.82 6337.22 1973.54C6353.53 1975.35 6371.64 1972.63 6377.08 1967.2C6387.95 1956.33 6401.53 1735.33 6394.29 1682.8C6389.76 1644.76 6370.74 1629.36 6341.75 1640.23Z" fill="white"/>
<path d="M4725.03 1691.86C4706.92 1696.39 4697.86 1745.29 4712.35 1757.97C4719.6 1763.41 4773.03 1764.32 4858.17 1759.79L4993.13 1753.45V1721.75V1690.05L4866.32 1689.14C4796.58 1688.23 4733.18 1689.14 4725.03 1691.86Z" fill="white"/>
<path d="M422 1704.28C460.516 1704.94 498.115 1692.51 528.649 1669.02C556.895 1645.35 576.221 1612.74 583.437 1576.6C594.738 1510.43 599.616 1443.33 598.002 1376.23C598.546 1281.63 600.248 1219.31 603.106 1189.27C606.088 1149.7 615.705 1110.91 631.555 1074.52C643.554 1048.03 661.073 1024.41 682.94 1005.24C705.962 986.643 732.694 973.184 761.344 965.765C795.934 958.936 831.19 956.081 866.428 957.258H914.07V1090.65H887.731C845.968 1085.36 803.807 1096.81 770.464 1122.51C745.787 1165.63 735.645 1215.55 741.539 1264.89C743.823 1358.75 740.71 1452.67 732.215 1546.18C726.121 1596.39 708.207 1644.43 679.945 1686.38C648.693 1724.27 608.965 1754.27 563.972 1773.97C622.043 1796.17 670.172 1838.55 699.546 1893.35C732.913 1976.82 747.28 2066.68 741.607 2156.4C741.607 2266.88 742.741 2332.67 745.01 2353.77C745.914 2383.93 758.164 2412.63 779.312 2434.15C812.113 2453.01 850.032 2461.04 887.662 2457.08H914.001V2590.68H866.36C825.672 2592.51 784.95 2587.92 745.691 2577.07C710.375 2564.72 679.18 2542.81 655.58 2513.78C630.483 2481.61 614.477 2443.3 609.231 2402.84C600.537 2329.81 596.785 2256.27 598.002 2182.74C599.82 2111.97 594.944 2041.19 583.437 1971.34C576.162 1935.16 556.851 1902.52 528.649 1878.71C498.169 1855.08 460.564 1842.51 422 1843.05V1704.28ZM2053.52 1842.78C2014.96 1842.24 1977.35 1854.81 1946.87 1878.44C1918.67 1902.24 1899.36 1934.89 1892.08 1971.07C1880.61 2040.99 1875.78 2111.84 1877.65 2182.67C1878.78 2256.21 1874.94 2329.75 1866.15 2402.77C1860.91 2443.23 1844.9 2481.54 1819.8 2513.71C1796.2 2542.74 1765.01 2564.65 1729.69 2577C1690.43 2587.85 1649.71 2592.44 1609.02 2590.62H1561.38V2457.29H1587.72C1625.35 2461.24 1663.27 2453.21 1696.07 2434.35C1717.35 2412.77 1729.66 2383.93 1730.51 2353.63C1732.78 2332.67 1733.91 2266.88 1733.91 2156.26C1728.24 2066.54 1742.61 1976.69 1775.97 1893.21C1805.37 1838.47 1853.5 1796.14 1911.55 1773.97C1866.66 1754.26 1827.03 1724.28 1795.85 1686.45C1767.59 1644.5 1749.67 1596.45 1743.58 1546.24C1735.08 1452.74 1731.97 1358.82 1734.25 1264.95C1740.15 1215.62 1730.01 1165.7 1705.33 1122.57C1671.99 1096.88 1629.82 1085.42 1588.06 1090.72H1561.72V957.258H1609.36C1644.51 956.102 1679.68 958.956 1714.18 965.765C1742.76 973.231 1769.42 986.712 1792.38 1005.31C1814.24 1024.48 1831.76 1048.1 1843.76 1074.59C1859.61 1110.98 1869.23 1149.77 1872.21 1189.34C1875.02 1219.38 1876.72 1281.7 1877.31 1376.3C1875.64 1443.47 1880.47 1510.64 1891.74 1576.87C1899 1612.94 1918.32 1645.47 1946.53 1669.09C1977.06 1692.58 2014.66 1705.01 2053.18 1704.35L2053.52 1842.78Z" fill="#C10064"/>
<path d="M1359.1 1447.08L1304.58 2243.48C1303.62 2257.83 1298.36 2265 1288.79 2265H1209.87C1156.3 2265 1118.03 2254.48 1095.07 2233.43C1072.11 2212.39 1060.64 2182.25 1060.64 2143.03C1060.64 2128.68 1061.11 2107.16 1062.07 2078.46C1063.98 2049.76 1066.38 2016.28 1069.24 1978.01C1072.11 1938.79 1074.98 1896.7 1077.85 1851.74C1081.68 1805.82 1085.51 1759.9 1089.33 1713.98C1093.16 1667.11 1096.51 1620.71 1099.38 1574.79C1103.21 1528.87 1106.55 1486.3 1109.42 1447.08H879.833C869.31 1447.08 864.048 1440.39 864.048 1426.99L868.353 1346.64C869.31 1334.2 871.223 1322.24 874.093 1310.76C877.919 1298.33 883.659 1287.33 891.312 1277.76C898.965 1268.19 908.531 1260.54 920.011 1254.8C932.447 1249.06 947.275 1246.19 964.494 1246.19H1605.91C1611.65 1246.19 1616.91 1247.63 1621.7 1250.5C1626.48 1253.37 1628.87 1258.63 1628.87 1266.28L1623.13 1350.94C1621.22 1379.64 1613.09 1403.08 1598.74 1421.25C1585.35 1438.47 1557.13 1447.08 1514.08 1447.08H1359.1Z" fill="url(#paint1_linear_811_328)"/>
<path d="M1430.3 2165.91C1343.47 2259.78 1413.87 2405.27 1545.28 2405.27C1608.64 2405.27 1672 2334.87 1672 2259.78C1672 2140.1 1510.08 2076.74 1430.3 2165.91Z" fill="#FF5005"/>
<defs>
<linearGradient id="paint0_linear_811_328" x1="2831.95" y1="2225.99" x2="2831.95" y2="1244" gradientUnits="userSpaceOnUse">
<stop stop-color="#2094FE"/>
<stop offset="1"/>
</linearGradient>
<linearGradient id="paint1_linear_811_328" x1="1349.54" y1="830" x2="1349.54" y2="1867.94" gradientUnits="userSpaceOnUse">
<stop stop-color="#2094FE"/>
<stop offset="1"/>
</linearGradient>
</defs>
</svg>
