 <svg  version="1.0" xmlns="http://www.w3.org/2000/svg"  width="900.000000pt" height="606.000000pt" viewBox="0 0 900.000000 606.000000"  preserveAspectRatio="xMidYMid meet">  <g transform="translate(0.000000,606.000000) scale(0.100000,-0.100000)" fill="#ffffff" stroke="none"> <path d="M4365 5050 c-143 -14 -296 -52 -470 -117 -163 -61 -377 -180 -529 -296 -101 -76 -262 -231 -329 -317 -28 -36 -54 -67 -58 -70 -12 -10 -82 -115 -135 -201 -61 -102 -131 -245 -163 -339 -13 -36 -27 -74 -31 -85 -32 -78 -68 -242 -89 -415 -14 -105 -14 -347 -2 -421 6 -30 13 -87 16 -126 7 -68 6 -73 -13 -73 -50 0 -170 173 -218 315 -24 70 -24 297 0 375 26 83 103 234 174 343 36 54 62 100 59 103 -16 16 -205 -134 -316 -252 -157 -166 -237 -314 -266 -492 -18 -108 -11 -196 27 -325 44 -150 167 -329 278 -404 14 -9 27 -20 30 -23 11 -14 108 -67 150 -83 171 -64 350 -72 580 -26 30 6 60 14 65 18 6 4 32 16 58 25 51 19 92 19 262 -3 100 -12 706 -13 840 -1 151 14 379 48 490 74 33 8 94 22 135 31 41 9 84 21 95 25 11 5 36 12 55 15 39 7 49 10 200 56 310 93 478 160 695 279 57 31 187 114 212 135 6 5 26 21 45 35 127 95 334 318 389 420 29 53 30 26 -10 260 -6 36 -16 76 -21 90 -4 14 -18 59 -31 100 -12 41 -25 80 -29 85 -3 6 -15 33 -25 60 -43 119 -152 309 -257 448 -62 83 -255 282 -338 349 -88 71 -247 170 -365 227 -182 89 -181 88 -420 161 -129 40 -526 61 -740 40z m286 -140 c-2 -14 -7 -146 -10 -295 l-6 -270 -40 0 -40 0 -2 150 c-1 83 -2 156 -3 163 0 14 -26 16 -35 3 -3 -6 -10 -61 -15 -123 -18 -207 -32 -224 -182 -229 -60 -3 -102 -9 -110 -17 -14 -14 -28 -251 -16 -283 10 -27 37 -24 48 7 16 42 13 179 -5 194 -22 19 -18 39 10 50 67 25 101 -30 90 -147 -13 -155 -35 -193 -115 -201 -99 -9 -124 32 -117 197 9 222 51 406 128 563 5 10 9 25 9 34 0 16 -1 16 -18 1 -10 -10 -26 -17 -35 -17 -12 0 -15 -7 -11 -32 8 -49 -43 -148 -76 -148 -5 0 -8 -21 -8 -47 1 -27 -6 -88 -16 -138 -31 -174 -56 -574 -56 -911 0 -204 -4 -218 -60 -212 l-35 3 -3 125 c-2 69 2 239 8 378 13 252 13 254 -8 275 l-21 21 -11 -29 c-6 -16 -15 -103 -21 -194 -5 -103 -15 -180 -24 -206 -40 -105 -187 -117 -240 -19 -14 27 -17 48 -12 121 9 144 41 342 81 502 18 69 17 93 -1 70 -7 -8 -30 -35 -53 -60 -37 -42 -39 -49 -29 -72 9 -19 9 -40 0 -84 -12 -61 -24 -128 -41 -228 -14 -82 -29 -225 -39 -377 -5 -69 -12 -131 -16 -137 -9 -16 -82 -14 -88 2 -6 16 9 246 18 270 5 11 1 19 -10 23 -11 5 -29 -5 -55 -32 -42 -41 -50 -68 -25 -81 11 -7 15 -39 17 -158 l3 -150 43 3 c54 4 72 -10 72 -59 0 -53 -31 -73 -101 -67 -37 4 -57 12 -79 33 l-30 29 0 123 c0 128 -10 156 -31 81 -6 -23 -26 -57 -44 -75 -41 -41 -84 -44 -132 -7 l-33 25 0 90 c0 81 -8 106 -25 79 -3 -5 -18 -10 -32 -10 -25 0 -25 1 -18 58 3 31 18 111 32 177 40 189 40 176 -6 125 -33 -36 -41 -51 -37 -75 4 -31 -4 -88 -26 -205 -11 -52 -18 -67 -38 -77 -29 -14 -38 -35 -39 -85 -1 -42 8 -46 49 -22 55 33 59 22 54 -148 -6 -221 -25 -436 -38 -447 -8 -7 -20 -6 -36 2 l-25 13 0 199 c0 127 -4 199 -10 202 -6 2 -19 -10 -28 -27 -10 -16 -22 -30 -28 -30 -12 0 -12 -47 1 -55 13 -8 14 -492 0 -500 -5 -3 -18 12 -30 34 -16 33 -21 67 -26 178 -5 107 -10 144 -23 163 -28 41 -29 48 -15 225 17 216 56 400 115 540 4 11 18 45 30 75 60 144 184 351 291 483 179 221 523 482 778 590 99 43 304 99 425 117 38 6 72 13 74 16 3 2 64 3 135 2 l131 -3 -4 -25z m151 -52 c14 -21 22 -47 22 -80 1 -40 6 -52 28 -71 37 -31 59 -89 65 -178 7 -99 1 -123 -41 -148 -102 -63 -176 16 -176 186 0 76 3 90 25 119 31 40 31 44 1 44 -31 0 -56 39 -56 89 0 47 24 69 76 69 27 0 39 -7 56 -30z m176 -75 c21 -30 51 -95 73 -156 10 -28 10 -43 3 -55 -18 -28 -43 -26 -55 5 -7 15 -18 42 -25 60 -8 17 -14 34 -14 39 0 15 -34 84 -42 84 -10 0 -11 34 -1 43 14 15 43 5 61 -20z m160 -32 c34 -38 41 -49 72 -116 34 -74 34 -101 -2 -89 -13 3 -24 7 -24 8 -5 4 -44 97 -44 103 0 5 -16 24 -35 43 -37 36 -44 55 -22 63 23 10 37 7 55 -12z m226 -76 c29 -38 72 -127 78 -160 2 -15 -3 -20 -20 -20 -19 0 -31 13 -58 65 -19 36 -48 77 -64 92 -32 30 -37 43 -17 51 32 14 56 5 81 -28z m-234 -216 c26 -81 70 -339 74 -424 1 -28 -1 -30 -41 -33 -37 -3 -43 0 -47 20 -9 46 -26 185 -32 262 -6 76 -8 79 -40 98 -21 12 -34 28 -34 40 0 21 78 99 94 95 5 -2 17 -28 26 -58z m587 -16 c64 -100 96 -182 97 -248 1 -47 -2 -60 -15 -63 -11 -2 -21 12 -34 45 -10 26 -25 66 -35 88 -9 22 -26 59 -36 83 -14 33 -25 45 -47 49 -42 9 -53 37 -27 73 32 45 55 39 97 -27z m-187 -44 c59 -64 125 -228 136 -336 7 -76 -15 -119 -77 -150 -54 -27 -82 -28 -137 -3 -71 32 -101 73 -128 175 -64 244 -62 229 -38 277 21 43 54 67 107 77 60 10 101 -2 137 -40z m-635 -106 c55 -26 72 -67 91 -213 15 -109 15 -138 5 -185 -17 -74 -56 -118 -124 -140 -50 -16 -54 -15 -98 3 -59 25 -96 70 -104 126 -4 24 -5 110 -3 192 3 130 6 152 23 176 40 53 142 73 210 41z m-346 -38 c35 -18 49 -54 57 -155 12 -144 -23 -218 -108 -227 -96 -9 -121 36 -112 202 6 118 23 171 58 185 33 13 74 11 105 -5z m1359 -209 c16 -31 34 -138 58 -335 16 -129 16 -135 -2 -148 -23 -16 -50 -17 -61 0 -4 6 -11 39 -14 72 -15 138 -31 242 -40 267 -6 15 -23 31 -40 37 -46 16 -39 57 18 104 25 21 50 36 57 34 6 -2 17 -16 24 -31z m232 -84 c47 -137 42 -234 -10 -187 -11 10 -20 24 -20 30 0 36 -42 138 -66 158 -26 23 -26 24 -10 56 17 31 55 55 67 42 4 -3 21 -48 39 -99z m-783 -49 c92 -48 122 -134 123 -354 0 -178 -22 -233 -115 -282 -31 -17 -58 -22 -120 -22 -72 0 -84 3 -125 30 -78 53 -89 88 -90 300 0 153 3 187 19 230 20 53 67 100 116 115 46 14 149 5 192 -17z m-993 -114 c49 -46 66 -111 66 -261 0 -64 -4 -119 -9 -123 -5 -3 -12 -18 -16 -34 -3 -15 -22 -43 -41 -62 -33 -32 -39 -34 -107 -34 -79 0 -106 13 -147 72 -20 30 -21 40 -18 205 3 172 3 175 30 210 38 50 82 69 149 65 48 -3 62 -8 93 -38z m256 1 c16 -8 19 -29 25 -173 4 -90 4 -183 0 -205 -6 -39 -9 -42 -39 -42 -52 0 -56 11 -56 156 l0 132 -30 11 c-16 5 -30 15 -30 21 0 10 98 109 108 110 2 0 12 -4 22 -10z m1074 -122 c12 -19 15 -84 18 -348 l3 -325 -35 -17 c-23 -12 -38 -14 -45 -7 -6 6 -11 111 -14 272 -2 144 -7 270 -12 279 -5 9 -21 18 -36 20 -50 6 -41 38 28 96 33 29 65 52 70 52 5 0 15 -10 23 -22z m-813 -67 c8 -36 1 -399 -7 -413 -9 -14 -51 -9 -65 9 -10 11 -16 56 -19 137 l-5 121 -26 3 c-45 5 -46 82 -2 96 10 3 29 24 43 46 20 32 30 40 50 38 19 -2 26 -11 31 -37z m1208 -127 c58 -29 81 -72 92 -172 5 -49 9 -127 7 -173 -3 -80 -4 -84 -31 -99 -45 -24 -57 2 -57 129 -1 176 -32 245 -102 228 -46 -12 -58 -65 -58 -247 0 -151 -1 -160 -22 -180 -26 -24 -32 -25 -52 -4 -13 12 -16 42 -17 147 -2 291 6 323 91 368 43 23 107 24 149 3z m-2288 -104 c63 -51 72 -84 77 -272 l5 -168 40 -22 c83 -46 117 -135 117 -305 0 -96 -18 -222 -37 -253 -25 -43 -67 -60 -146 -60 -78 1 -95 9 -132 65 -17 26 -20 50 -23 185 -4 162 -6 170 -50 170 -34 0 -79 36 -102 80 -18 35 -20 60 -20 243 0 158 3 214 15 248 29 81 82 119 165 119 47 0 61 -5 91 -30z m387 -461 c2 -227 -1 -294 -10 -301 -23 -14 -75 -9 -82 9 -4 9 -6 109 -6 222 0 113 1 211 0 218 0 6 -12 13 -27 15 -23 2 -29 8 -31 35 -2 17 3 36 10 42 96 80 100 82 122 68 20 -14 21 -22 24 -308z m1283 254 c14 -38 12 -486 -3 -501 -10 -10 -75 -18 -80 -9 0 1 -4 88 -7 192 l-6 190 -37 3 c-30 3 -39 8 -44 27 -7 30 10 62 38 71 12 3 39 19 61 35 42 31 64 29 78 -8z m-898 11 c36 -18 53 -35 81 -78 25 -39 40 -243 32 -416 -7 -133 -22 -182 -69 -221 -28 -24 -102 -49 -141 -49 -45 0 -134 49 -170 93 l-31 39 0 261 c0 244 1 264 20 292 22 33 44 52 89 76 42 23 147 24 189 3z m479 -60 c47 -14 66 -25 92 -58 50 -62 58 -96 63 -272 7 -193 -7 -259 -63 -311 -40 -36 -110 -63 -165 -63 -72 0 -168 59 -190 118 -10 26 -12 413 -3 461 9 43 71 101 130 122 62 22 66 22 136 3z m-1889 -29 c19 -8 49 -31 66 -52 l31 -38 0 -200 c0 -236 -10 -289 -64 -330 -53 -40 -132 -28 -186 30 l-25 27 0 238 0 239 35 36 c30 31 77 61 101 64 4 1 22 -6 42 -14z m288 -112 c11 -12 15 -77 17 -297 3 -259 2 -281 -14 -293 -26 -19 -62 -16 -74 6 -6 12 -10 106 -10 236 0 215 0 216 -21 213 -15 -2 -24 4 -30 20 -8 20 -1 31 44 77 57 59 68 63 88 38z m2422 -200 c26 -16 -15 -56 -69 -68 -16 -4 -62 -23 -101 -42 -75 -36 -103 -38 -103 -5 0 30 70 101 115 118 37 13 135 11 158 -3z m-2963 -223 c0 -44 -5 -71 -13 -79 -17 -13 -24 -6 -43 38 -19 46 -18 73 6 99 34 37 50 19 50 -58z m735 -105 c12 -123 -7 -174 -60 -161 -23 6 -25 11 -25 58 0 41 -5 55 -25 74 -35 33 -31 51 22 101 48 44 48 44 65 23 10 -12 19 -49 23 -95z m661 -84 c48 -24 68 -45 60 -66 -4 -11 -23 -15 -78 -16 -40 0 -95 -4 -123 -9 -75 -12 -100 19 -50 62 58 50 126 60 191 29z"/> <path d="M4435 4820 c-7 -23 2 -43 16 -35 12 8 12 55 0 55 -5 0 -12 -9 -16 -20z"/> <path d="M4356 4798 c-14 -40 -15 -48 -6 -53 11 -7 24 38 17 57 -3 9 -7 8 -11 -4z"/> <path d="M4253 4765 c-3 -9 -3 -18 0 -21 9 -9 27 6 27 22 0 19 -19 18 -27 -1z"/> <path d="M4078 4728 c-16 -11 -28 -27 -28 -36 0 -10 -9 -30 -20 -47 -21 -32 -26 -55 -10 -55 12 0 93 136 88 149 -1 5 -15 1 -30 -11z"/> <path d="M3922 4673 c-6 -10 -13 -38 -17 -63 l-6 -45 22 35 c26 39 49 80 49 86 0 13 -41 1 -48 -13z"/> <path d="M4394 4642 c-6 -4 -14 -43 -17 -86 -6 -82 -22 -114 -51 -103 -10 4 -16 22 -18 54 -3 53 -20 61 -29 14 -11 -55 0 -80 41 -92 67 -20 89 11 105 147 7 52 -8 81 -31 66z"/> <path d="M3807 4593 c-4 -3 -7 -16 -7 -28 0 -12 -13 -47 -30 -78 -32 -60 -36 -77 -20 -77 8 0 100 172 100 186 0 7 -36 4 -43 -3z"/> <path d="M3650 4500 c-11 -11 -20 -27 -20 -36 0 -9 -16 -52 -35 -97 -36 -84 -42 -107 -25 -107 5 0 24 30 41 68 17 37 43 93 59 124 15 31 25 59 22 62 -10 10 -22 6 -42 -14z"/> <path d="M3877 4433 c-42 -22 -96 -148 -97 -224 0 -71 89 -95 133 -36 51 67 76 220 42 257 -21 23 -39 24 -78 3z m46 -93 c-1 -78 -31 -155 -62 -163 -14 -3 -24 1 -31 13 -11 20 -2 107 11 116 5 3 9 12 9 21 0 28 41 84 59 81 13 -3 16 -16 14 -68z"/> <path d="M3482 4400 c-12 -11 -19 -26 -16 -33 2 -7 -7 -36 -21 -65 -27 -57 -32 -86 -12 -80 12 4 95 163 96 186 1 18 -23 15 -47 -8z"/> <path d="M3246 4158 c-9 -12 -16 -28 -16 -34 0 -7 -16 -26 -36 -43 -33 -29 -35 -35 -29 -70 4 -22 2 -42 -3 -45 -5 -3 -13 -23 -17 -43 -3 -21 -12 -56 -19 -78 -23 -69 -28 -125 -12 -125 9 0 27 41 51 118 20 64 40 126 45 137 4 11 18 49 30 85 12 36 26 73 31 82 21 40 1 53 -25 16z"/> <path d="M3358 4097 c-14 -12 -31 -33 -38 -45 -25 -49 -80 -244 -80 -281 0 -49 80 -68 125 -28 26 22 58 97 75 175 27 120 30 140 25 170 -5 29 -9 32 -43 32 -24 0 -47 -8 -64 -23z m59 -81 c-6 -58 -29 -141 -58 -203 -15 -34 -24 -43 -44 -43 -22 0 -25 4 -25 34 0 18 4 46 9 62 5 16 19 62 32 102 25 80 50 115 75 105 13 -5 15 -16 11 -57z"/> <path d="M3725 3969 c-14 -21 -48 -341 -39 -363 9 -24 37 -28 56 -8 15 14 21 46 30 143 7 68 12 149 13 179 0 52 -1 55 -27 58 -14 2 -29 -2 -33 -9z"/> <path d="M3125 3551 c-10 -44 -22 -214 -17 -234 3 -10 9 -16 15 -14 17 5 37 93 44 190 6 83 5 87 -15 87 -14 0 -22 -8 -27 -29z"/> <path d="M4730 4818 c0 -44 15 -67 31 -51 9 9 9 22 3 44 -13 45 -34 50 -34 7z"/> <path d="M4777 4643 c-11 -10 -7 -73 8 -136 16 -68 17 -70 39 -61 13 5 16 20 16 76 0 91 -32 153 -63 121z"/> <path d="M5396 4339 c-28 -22 -33 -51 -16 -103 5 -17 19 -65 31 -106 27 -88 61 -140 92 -140 26 0 64 29 68 50 5 26 -12 129 -22 135 -5 4 -9 13 -9 21 0 30 -49 122 -76 143 -33 26 -35 26 -68 0z"/> <path d="M4768 4202 c-27 -16 -28 -19 -28 -107 0 -93 15 -214 29 -228 4 -4 24 -10 44 -14 29 -4 40 -1 61 20 25 25 26 31 26 139 0 136 -11 185 -46 198 -35 14 -55 12 -86 -8z"/> <path d="M4464 4166 c-3 -14 -4 -64 -3 -110 4 -92 17 -119 44 -96 13 11 15 32 13 119 -3 101 -4 106 -25 109 -17 3 -24 -3 -29 -22z"/> <path d="M5184 3829 c-46 -23 -57 -74 -52 -236 7 -206 20 -232 119 -233 46 0 61 4 83 25 14 13 26 28 26 32 0 5 5 45 10 90 7 56 7 110 0 173 -11 99 -20 124 -48 139 -29 16 -115 22 -138 10z"/> <path d="M4200 3718 c-18 -19 -20 -34 -19 -137 1 -64 4 -129 8 -146 12 -56 95 -73 121 -25 6 11 13 75 16 142 5 113 4 126 -15 156 -17 26 -27 32 -55 32 -23 0 -42 -7 -56 -22z"/> <path d="M3657 3285 l-27 -26 0 -195 c0 -162 3 -199 16 -219 24 -36 44 -30 86 24 l37 49 7 164 7 163 -28 33 c-32 39 -61 41 -98 7z"/> <path d="M3834 2823 c-9 -9 -20 -27 -25 -40 -10 -26 -12 -324 -3 -359 8 -32 49 -47 82 -32 l27 13 3 194 c2 166 0 196 -13 211 -23 26 -53 31 -71 13z"/> <path d="M4409 3069 l-29 -31 0 -215 c0 -236 5 -260 59 -283 38 -15 85 -5 116 26 l25 25 0 223 0 224 -35 31 c-49 43 -96 43 -136 0z"/> <path d="M4940 3013 c-45 -17 -47 -27 -55 -224 -8 -210 -5 -223 55 -254 25 -13 38 -13 75 -4 73 18 75 26 75 246 l0 192 -25 26 c-20 19 -36 25 -68 24 -23 0 -49 -3 -57 -6z"/> <path d="M3096 2987 c-20 -20 -25 -38 -31 -108 -3 -46 -5 -133 -3 -193 3 -106 4 -110 31 -130 l27 -20 20 20 c18 18 21 38 27 170 7 182 0 255 -28 272 -17 11 -23 9 -43 -11z"/> <path d="M6650 3727 c0 -7 12 -30 27 -52 40 -58 90 -159 98 -197 4 -18 11 -38 16 -43 4 -6 13 -50 19 -97 32 -259 -64 -492 -300 -728 -111 -111 -143 -140 -200 -180 -19 -14 -37 -28 -40 -31 -3 -3 -43 -30 -90 -60 -221 -144 -462 -265 -695 -349 -49 -18 -99 -36 -110 -41 -11 -4 -38 -13 -60 -19 -22 -6 -62 -18 -90 -26 -293 -88 -620 -146 -970 -175 -162 -13 -687 -6 -810 10 -44 6 -114 15 -155 21 -99 12 -245 37 -295 49 -90 23 -96 9 -27 -64 26 -27 69 -75 96 -105 66 -75 225 -221 316 -289 172 -130 386 -235 605 -296 33 -9 71 -20 85 -25 118 -39 366 -70 552 -70 144 1 347 24 463 53 33 8 80 20 105 26 25 6 54 15 65 20 11 5 43 17 70 26 304 106 602 317 835 590 126 149 258 366 320 526 11 30 25 63 30 74 5 11 19 52 31 90 36 116 43 127 206 291 163 164 199 213 256 346 30 70 31 79 32 208 0 132 -1 136 -33 203 -49 101 -110 168 -246 268 -79 59 -106 70 -106 46z m-1455 -2023 c9 -10 13 -23 9 -33 -3 -9 -10 -33 -15 -53 -15 -63 -41 -108 -67 -115 -31 -7 -41 9 -35 57 4 32 2 38 -16 43 -21 5 -28 31 -13 54 7 11 100 62 114 63 4 0 14 -7 23 -16z m-1823 -126 c55 -58 72 -88 46 -88 -14 0 -61 36 -125 94 -41 38 -46 46 -34 60 18 21 40 9 113 -66z m1273 -41 c0 -103 -1 -110 -24 -128 -45 -36 -56 -23 -53 63 3 73 2 77 -20 80 -33 4 -37 50 -6 70 28 19 56 27 83 25 19 -2 20 -9 20 -110z m242 17 c-5 -74 -24 -116 -59 -135 -29 -16 -38 -2 -38 57 0 30 -5 63 -12 73 -15 25 8 62 53 84 52 25 63 9 56 -79z m-1397 35 c25 -29 84 -92 133 -142 48 -49 87 -94 87 -98 0 -18 -34 -8 -74 23 -57 44 -236 220 -236 233 0 14 21 35 34 35 6 0 31 -23 56 -51z m217 -31 c40 -55 135 -166 222 -257 48 -51 64 -81 41 -81 -12 0 -11 -1 -105 78 -38 32 -101 92 -140 133 -38 42 -85 84 -102 94 -37 21 -43 50 -15 71 34 26 59 16 99 -38z m275 -64 c72 -116 84 -158 46 -152 -14 2 -45 32 -83 83 -34 44 -73 86 -88 93 -15 7 -27 21 -27 32 0 19 57 62 75 57 6 -2 40 -53 77 -113z m316 97 c41 -21 58 -44 84 -111 25 -63 24 -130 -3 -159 -20 -21 -29 -23 -98 -19 -87 4 -101 13 -151 102 -33 58 -41 117 -21 154 27 50 123 67 189 33z m-173 -329 c64 -51 77 -79 35 -73 -14 1 -27 6 -30 10 -3 3 -24 19 -47 35 -40 26 -53 53 -36 69 11 12 17 8 78 -41z m465 18 c17 -11 14 -14 -25 -27 -30 -10 -31 -14 -19 -65 6 -25 4 -28 -20 -28 -21 0 -30 7 -42 35 -18 45 -18 51 6 75 21 21 74 27 100 10z m-257 -59 c31 -46 34 -56 10 -47 -68 26 -110 86 -60 86 14 0 32 -14 50 -39z"/> <path d="M4203 1515 c-17 -12 -20 -20 -14 -47 23 -99 102 -162 126 -100 9 24 -14 118 -33 135 -27 24 -56 28 -79 12z"/> </g> </svg> 